VIDEO INFO:


Format                           : Matroska
Format version                   : Version 2
File size                        : 1.44 GiB
Duration                         : 1h 31mn
Overall bit rate                 : 2 247 Kbps
Encoded date                     : UTC 2011-09-12 09:42:04
Writing application              : mkvmerge v4.9.1 (\'Ich will\') gemaakt op Jul 11 2011 23:53:15
Writing library                  : libebml v1.2.1 + libmatroska v1.1.1

Video
ID                               : 1
Format                           : AVC
Format/Info                      : Advanced Video Codec
Format profile                   : High@L3.1
Format settings, CABAC           : Yes
Format settings, ReFrames        : 6 frames
Codec ID                         : V_MPEG4/ISO/AVC
Duration                         : 1h 31mn
Bit rate                         : 1 800 Kbps
Width                            : 720 pixels
Height                           : 576 pixels
Display aspect ratio             : 16:9
Frame rate mode                  : Variable
Frame rate                       : 25.000 fps
Standard                         : PAL
Color space                      : YUV
Chroma subsampling               : 4:2:0
Bit depth                        : 8 bits
Scan type                        : Progressive
Bits/(Pixel*Frame)               : 0.174
Stream size                      : 1.12 GiB (78%)
Title                            : Alien Autopsy (2006) multisub x264
Writing library                  : x264 core 88
Encoding settings                : cabac=1 / ref=6 / deblock=1:-1:0 / analyse=0x3:0x133 / me=umh / subme=9 / psy=1 / psy_rd=1.00:0.00 / mixed_ref=1 / me_range=32 / chroma_me=1 / trellis=2 / 8x8dct=1 / cqm=0 / deadzone=21,11 / fast_pskip=1 / chroma_qp_offset=-2 / threads=12 / sliced_threads=0 / nr=0 / decimate=1 / mbaff=0 / constrained_intra=0 / bframes=6 / b_pyramid=2 / b_adapt=2 / b_bias=0 / direct=3 / wpredb=1 / wpredp=2 / keyint=250 / keyint_min=25 / scenecut=40 / intra_refresh=0 / rc_lookahead=50 / rc=2pass / mbtree=1 / bitrate=1800 / ratetol=1.0 / qcomp=0.60 / qpmin=10 / qpmax=51 / qpstep=4 / cplxblur=20.0 / qblur=0.5 / ip_ratio=1.40 / aq=1:1.00
Language                         : English
Color primaries                  : BT.601-6 525, BT.1358 525, BT.1700 NTSC, SMPTE 170M
Transfer characteristics         : BT.709-5, BT.1361
Matrix coefficients              : BT.601-6 525, BT.1358 525, BT.1700 NTSC, SMPTE 170M

Audio
ID                               : 2
Format                           : AC-3
Format/Info                      : Audio Coding 3
Mode extension                   : CM (complete main)
Codec ID                         : A_AC3
Duration                         : 1h 31mn
Bit rate mode                    : Constant
Bit rate                         : 448 Kbps
Channel(s)                       : 6 channels
Channel positions                : Front: L C R, Side: L R, LFE
Sampling rate                    : 48.0 KHz
Bit depth                        : 16 bits
Compression mode                 : Lossy
Stream size                      : 293 MiB (20%)
Title                            : Alien Autopsy 2006 ac3
Language                         : English

Text
ID                               : 3
Format                           : UTF-8
Codec ID                         : S_TEXT/UTF8
Codec ID/Info                    : UTF-8 Plain Text
Title                            : Alien Autopsy 2006 srt
Language                         : Dutch

-------------------------------------

Verenigd Koninkrijk
Sciencefiction / Komedie
95 minuten

geregisseerd door Jonny Campbell
met Declan Donnelly, Ant McPartlin en Bill Pullman

Ray Santilli (Declan Donnelly) en zijn vriend Gary Shoefield (Ant McPartlin) maken een trip naar de V.S. Tot hun stomme verbazing ontdekken zij op zekere dag een militaire film die top-secret is. De film bevat beelden die de wijze waarop de mensheid tegen het universum aankijkt voorgoed zal veranderen. Zij lenen geld van een drugsbaron en keren naar Engeland terug met het beeldenmateriaal. De mediahype die dan ontstaat zet hen in de schijnwerpers. Het blijkt dat zij nog een geheim te verbergen hebben en wanneer dat ontdekt dreigt te worden is hun leven in gevaar.

-Ondertiteling (nederlands) in de film met de mogelijkheid deze aan/uit te zetten.
